<svg xmlns="http://www.w3.org/2000/svg" xml:space="preserve" width="35.8531mm" height="35.8531mm"
     style="shape-rendering:geometricPrecision; text-rendering:geometricPrecision; image-rendering:optimizeQuality; fill-rule:evenodd; clip-rule:evenodd"
     viewBox="0 0 7.52189 7.52189"
>
 <defs>
  <style type="text/css">
   <![CDATA[
    .str0 {stroke:#2B2A29;stroke-width:0.0419595}
    .fil0 {fill:#2B2A29}
   ]]>
  </style>
 </defs>
    <g id="Layer_x0020_1">
  <metadata id="CorelCorpID_0Corel-Layer"/>
        <path class="fil0 str0" d="M0.0209798 3.76005c0,-2.06886 1.67517,-3.73907 3.74086,-3.73907 2.06569,0 3.73907,1.6745 3.73907,3.73907 0,2.06458 -1.67106,3.74086 -3.73907,3.74086 -2.06802,0 -3.74086,-1.672 -3.74086,-3.74086zm0.436966 0c0,1.82845 1.47544,3.30389 3.30389,3.30389 1.82845,0 3.30211,-1.47693 3.30211,-3.30389 0,-1.82696 -1.47515,-3.30211 -3.30211,-3.30211 -1.82696,0 -3.30389,1.47366 -3.30389,3.30211zm2.94686 0.00178328c0,0.192133 0.163768,0.35525 0.35525,0.35525 0.191482,0 0.355271,-0.162719 0.355271,-0.35525 0,-0.192531 -0.162132,-0.355271 -0.355271,-0.355271 -0.19314,0 -0.35525,0.163139 -0.35525,0.355271z"/>
 </g>
</svg>
