<?xml version="1.0" standalone="no"?>
<!DOCTYPE svg PUBLIC "-//W3C//DTD SVG 20010904//EN"
    "http://www.w3.org/TR/2001/REC-SVG-20010904/DTD/svg10.dtd">
<svg version="1.0" xmlns="http://www.w3.org/2000/svg"
     width="300.000000pt" height="300.000000pt" viewBox="0 0 300.000000 300.000000"
     preserveAspectRatio="xMidYMid meet">

    <g transform="translate(0.000000,300.000000) scale(0.100000,-0.100000)"
       fill="#000000" stroke="none">
        <path d="M1241 2719 c-481 -101 -862 -485 -960 -966 -29 -138 -29 -356 -1
-491 53 -262 170 -474 364 -660 378 -363 940 -445 1413 -207 685 345 895 1213
445 1839 -61 84 -191 213 -284 282 -127 93 -326 177 -497 209 -121 22 -359 19
-480 -6z m330 -48 c11 -13 19 -38 19 -60 -1 -64 -38 -91 -124 -91 -60 0 -64 3
-41 26 21 21 21 132 0 140 -32 13 -3 19 60 14 54 -5 71 -10 86 -29z m138 13
c12 -4 12 -7 -1 -17 -16 -13 -42 -123 -32 -138 10 -17 53 -9 68 13 21 29 29
19 15 -21 -8 -22 -16 -30 -28 -27 -9 3 -43 10 -75 15 -58 11 -85 21 -54 21 24
0 47 132 28 155 -12 15 -10 16 26 10 21 -4 45 -9 53 -11z m-365 -8 c86 -36 63
-155 -33 -172 -59 -10 -204 -55 -229 -71 -22 -14 -23 -13 -18 4 2 10 -6 38
-20 63 l-25 45 6 -74 7 -75 -34 27 c-18 15 -46 37 -61 48 l-29 22 26 -51 c18
-36 30 -50 41 -46 26 10 16 -12 -10 -24 -34 -16 -38 -15 -31 4 8 21 -49 132
-71 136 -13 3 -8 9 20 22 l38 19 38 -37 c20 -20 39 -36 41 -36 3 0 4 26 2 58
-4 57 -3 58 32 75 34 16 47 12 27 -8 -6 -6 2 -32 22 -70 25 -47 37 -59 52 -57
11 2 21 5 23 6 1 2 -7 33 -18 69 -13 43 -26 67 -38 70 -13 3 -11 6 11 15 15 7
40 15 55 19 24 6 25 4 14 -10 -11 -13 -10 -26 6 -78 20 -66 28 -75 51 -60 11
7 12 20 1 75 -7 39 -19 70 -28 75 -11 7 -1 12 39 19 30 5 55 10 57 11 1 0 17
-5 36 -13z m546 -40 c36 -13 65 -29 64 -35 -1 -6 -2 -18 -2 -26 -3 -22 -22
-19 -22 3 0 11 -11 24 -24 30 -22 10 -25 8 -35 -19 -11 -31 -1 -38 19 -14 19
23 23 11 9 -34 -13 -43 -29 -55 -29 -21 0 24 -15 27 -24 4 -17 -44 17 -67 59
-40 28 19 30 17 13 -19 -6 -14 -16 -24 -22 -22 -6 2 -36 12 -66 22 -57 18 -85
35 -59 35 19 0 63 118 53 143 -8 21 -12 21 66 -7z m182 -82 c76 -43 71 -38 63
-63 -8 -27 -23 -27 -27 1 -6 39 -22 29 -56 -33 -27 -51 -31 -64 -20 -77 14
-17 11 -16 -44 13 -35 17 -55 44 -25 32 19 -7 83 111 69 125 -8 8 -16 7 -27
-2 -21 -18 -29 -7 -13 19 7 12 14 21 14 21 1 0 31 -16 66 -36z m-535 -103 l19
-38 23 18 c30 24 58 24 72 0 10 -14 21 -17 53 -14 39 5 43 3 67 -35 l27 -40
-79 3 c-68 3 -79 1 -84 -15 -11 -35 -32 -44 -60 -26 -13 9 -26 16 -27 16 -2 0
-12 -15 -22 -34 -21 -40 -52 -51 -82 -31 -19 13 -24 12 -40 -6 -10 -12 -27
-25 -37 -30 -20 -12 -60 -2 -52 12 14 22 -27 19 -69 -6 -41 -24 -48 -25 -72
-13 -38 18 -48 39 -40 80 13 71 76 109 118 71 18 -16 18 -15 14 19 -6 53 16
80 63 77 20 -2 42 1 49 5 7 4 25 10 39 12 15 3 30 7 32 10 2 2 19 4 37 4 27 0
35 -6 51 -39z m-727 -32 c0 -5 -13 -6 -28 -3 -39 8 -57 -14 -36 -44 18 -25 38
-19 31 9 -8 29 8 23 37 -16 l27 -35 -32 7 -31 6 17 -27 c12 -19 23 -25 36 -21
29 10 22 -7 -15 -37 -39 -31 -48 -34 -40 -14 7 19 -75 112 -98 109 -29 -4 -20
9 40 59 53 44 58 46 74 31 10 -9 18 -20 18 -24z m780 37 c0 -2 -7 -6 -15 -10
-8 -3 -15 -1 -15 4 0 6 7 10 15 10 8 0 15 -2 15 -4z m666 -30 c38 -38 42 -64
17 -106 -42 -72 -143 -62 -171 18 -19 55 31 122 91 122 20 0 40 -11 63 -34z
m-561 14 c3 -5 -1 -10 -9 -10 -9 0 -16 5 -16 10 0 6 4 10 9 10 6 0 13 -4 16
-10z m-445 -31 c0 -15 -5 -19 -19 -14 -45 14 -103 -41 -117 -113 -5 -26 -1
-36 25 -62 24 -25 38 -31 63 -28 27 2 37 -2 53 -26 27 -40 69 -50 123 -30 23
9 47 24 52 34 8 14 18 17 50 13 32 -5 46 -1 74 21 19 14 38 35 41 46 8 26 30
26 32 0 1 -11 -6 -22 -17 -25 -23 -7 -41 -57 -33 -95 3 -17 1 -36 -5 -43 -8
-9 -6 -19 7 -36 13 -17 17 -37 15 -70 l-3 -46 8 39 c5 23 20 50 35 63 15 13
23 23 19 23 -5 0 -14 -5 -20 -11 -13 -13 -43 -5 -43 12 0 8 19 9 68 4 124 -13
168 -81 106 -163 -25 -32 -29 -34 -75 -30 -27 3 -46 1 -43 -3 2 -4 -1 -11 -7
-15 -8 -5 -11 -1 -7 12 6 23 -18 48 -47 51 -11 1 -44 10 -74 21 -67 25 -86 19
-251 -72 -85 -48 -119 -62 -132 -55 -23 12 -62 11 -74 -1 -14 -14 -53 1 -78
29 -11 11 -26 21 -34 21 -7 0 -27 9 -43 21 -19 13 -39 19 -52 16 -78 -19 -100
-27 -125 -43 -55 -38 -132 -56 -132 -31 0 19 63 148 104 210 43 68 149 181
219 235 65 50 172 109 251 138 76 29 86 29 86 3z m616 -20 c92 -38 200 -108
278 -180 56 -50 181 -207 173 -215 -2 -2 -25 0 -51 5 l-46 8 6 -36 c4 -20 8
-38 10 -40 2 -2 29 -6 61 -8 79 -7 80 -13 1 -13 -96 0 -130 -8 -123 -31 5 -13
2 -17 -12 -15 -33 6 -60 -11 -68 -46 l-8 -33 -4 28 c-3 16 3 39 12 54 19 28
16 37 -9 27 -12 -5 -16 -19 -16 -59 0 -51 -1 -52 -27 -48 -23 3 -25 2 -8 -6
14 -6 2 -9 -45 -10 -91 -1 -136 -13 -132 -34 4 -21 3 -21 -41 -2 -40 16 -60
45 -51 70 5 13 20 15 88 12 44 -2 89 -7 99 -12 9 -4 38 -4 63 0 l45 6 -3 42
c-3 39 -5 42 -38 48 -22 4 4 7 70 9 l105 3 -80 7 c-193 18 -255 21 -255 10 0
-5 19 -11 43 -11 37 -1 34 -3 -22 -11 -66 -9 -89 -4 -58 13 23 14 22 28 -3 22
-16 -4 -20 0 -20 21 0 24 10 31 34 27 5 -1 6 5 2 14 -3 9 -6 21 -6 27 0 6 -7
7 -16 4 -12 -5 -15 -2 -10 11 4 9 1 20 -6 24 -8 5 -14 37 -16 83 -4 72 -3 76
28 114 l32 40 -36 48 c-58 75 -51 79 60 33z m539 -104 c55 -71 64 -88 43 -80
-8 3 -22 -11 -35 -34 l-23 -40 44 15 c35 12 43 19 39 32 -5 15 -3 14 15 -2 27
-23 28 -36 5 -36 -10 0 -53 -11 -95 -24 -43 -14 -78 -20 -78 -15 0 5 12 28 26
51 l26 41 -27 -7 c-54 -14 -85 -18 -85 -13 0 3 18 36 40 75 22 38 40 76 40 86
0 28 13 18 65 -49z m-1692 -16 c38 -41 36 -82 -7 -125 -22 -22 -44 -34 -61
-34 -36 0 -95 59 -95 94 0 36 28 76 65 92 38 17 63 10 98 -27z m954 4 c-3 -3
-13 1 -21 10 -8 8 -12 17 -9 20 3 3 12 -1 20 -9 9 -8 13 -18 10 -21z m-77 -4
c0 -16 -42 -58 -71 -69 -26 -11 -35 -11 -52 0 -18 11 -23 10 -41 -12 -45 -54
-111 -64 -151 -23 -31 30 -31 40 -3 59 21 15 23 15 30 -4 11 -29 59 -26 96 5
19 15 33 21 37 15 3 -5 19 -10 35 -10 29 0 52 16 70 51 9 16 14 17 30 6 11 -6
20 -15 20 -18z m76 -90 c17 -19 17 -23 3 -47 -10 -18 -23 -27 -39 -27 -16 0
-29 9 -39 27 -14 24 -14 28 3 47 11 12 27 21 36 21 9 0 25 -9 36 -21z m868
-171 c-13 -26 -24 -50 -24 -53 0 -13 59 27 62 42 3 14 8 10 22 -15 17 -33 17
-34 -3 -27 -13 4 -45 -7 -91 -30 -82 -41 -83 -41 -29 67 16 32 29 59 29 61 0
2 -22 -7 -50 -20 -34 -16 -48 -28 -44 -38 10 -26 -12 -16 -24 10 -15 33 -15
36 2 29 22 -8 136 53 136 74 1 10 8 3 19 -18 19 -34 19 -35 -5 -82z m-2050 78
c3 -14 22 -41 41 -61 28 -30 39 -36 60 -31 l25 6 -22 -45 c-20 -41 -45 -65
-32 -30 12 31 -96 44 -162 18 -13 -5 -12 2 6 37 13 25 25 38 29 32 4 -7 21 -9
43 -5 l37 5 -21 28 c-11 16 -27 26 -34 23 -17 -6 -18 1 -2 27 17 26 25 25 32
-4z m1035 -163 c54 -17 63 -27 31 -36 -12 -3 -18 -11 -15 -19 9 -23 -39 -60
-71 -56 -16 2 -29 8 -29 15 0 24 -13 23 -29 -2 -19 -29 -15 -55 7 -55 17 0 11
-47 -8 -70 -17 -21 -24 -68 -11 -74 12 -5 -64 -9 -103 -6 -13 1 -36 11 -50 21
-15 11 -52 24 -84 29 -37 6 -69 18 -87 34 l-29 24 22 15 c52 34 108 56 155 63
29 3 49 10 46 15 -3 5 -17 7 -32 3 l-27 -5 25 15 c15 9 50 15 91 16 38 0 73 6
84 13 16 12 10 13 -41 9 -32 -2 -57 -2 -54 1 11 12 126 66 141 67 9 0 40 -7
68 -17z m-1099 -23 c0 -4 -9 -10 -21 -13 -36 -10 -15 -30 51 -49 49 -13 66
-15 71 -6 15 23 18 2 7 -38 -15 -50 -16 -51 -31 -32 -6 8 -32 20 -57 27 -25 7
-53 15 -62 17 -13 4 -18 0 -18 -15 0 -12 5 -21 10 -21 6 0 10 -4 10 -10 0 -12
-20 -13 -37 -2 -10 6 -8 23 6 75 11 36 22 71 25 76 7 10 46 3 46 -9z m470 -30
c14 -11 32 -20 41 -20 9 0 24 -9 34 -20 10 -12 39 -30 64 -41 l46 -20 -25 -19
c-30 -24 -32 -24 -77 -5 -45 19 -73 19 -146 -2 -47 -13 -63 -14 -79 -4 -10 6
-24 9 -30 5 -6 -4 -8 -3 -5 3 10 16 -20 24 -50 12 -14 -5 -43 -24 -65 -41 -21
-17 -40 -29 -42 -27 -2 2 1 19 6 37 7 26 14 32 36 32 15 0 38 9 52 20 29 23
16 26 -20 5 -33 -19 -50 -19 -50 0 0 10 11 15 38 16 20 1 44 2 52 3 8 1 32 14
52 29 29 22 84 45 138 56 3 0 16 -8 30 -19z m1483 11 c29 -11 52 -69 43 -106
-9 -35 -46 -57 -84 -49 -21 4 -32 12 -32 24 0 25 -25 42 -57 39 -32 -4 -56 8
-48 22 9 13 59 11 73 -3 9 -9 12 -9 12 0 0 7 -4 12 -10 12 -5 0 -10 9 -10 20
0 14 11 26 33 35 39 17 48 18 80 6z m-448 -11 c3 -5 27 -10 52 -10 83 0 40 -9
-75 -16 -109 -6 -112 -5 -112 15 0 19 6 21 64 21 36 0 68 -4 71 -10z m571 -5
c4 -8 1 -22 -6 -30 -13 -16 -5 -36 13 -30 7 2 38 9 70 15 41 8 57 16 57 28 0
25 18 1 22 -29 2 -19 -9 -40 -37 -74 -36 -45 -37 -48 -15 -42 14 4 31 7 38 7
6 0 12 7 12 15 0 15 20 22 20 8 0 -5 3 -18 6 -31 6 -20 4 -22 -18 -17 -21 5
-86 -4 -140 -21 -29 -9 -21 10 32 76 28 34 50 64 50 65 0 1 -23 -3 -52 -10
-34 -7 -54 -17 -58 -30 -6 -17 -7 -17 -13 -1 -4 10 -7 26 -7 37 0 12 -7 19
-20 19 -11 0 -20 5 -20 10 0 6 4 10 9 10 5 0 11 9 14 20 6 23 35 27 43 5z
m-1373 -62 c4 -3 -2 -13 -13 -20 -16 -12 -24 -12 -35 -3 -8 7 -12 16 -9 21 6
10 48 12 57 2z m1076 -27 c7 -9 8 -17 3 -20 -12 -7 -64 19 -55 27 11 12 40 8
52 -7z m80 -5 c9 -6 12 -19 8 -40 -6 -28 -5 -30 13 -19 15 10 23 9 39 -6 43
-39 15 -105 -45 -109 -26 -2 -29 1 -32 33 -2 19 -7 39 -11 43 -5 5 -6 -3 -4
-17 12 -63 -60 -102 -93 -51 l-17 26 -11 -23 c-22 -44 -94 -30 -80 16 6 21 6
21 -15 -1 -27 -28 -51 -29 -85 -2 -20 16 -26 17 -26 6 0 -19 -27 -29 -52 -21
-27 8 -20 54 9 65 16 6 29 2 47 -12 14 -11 26 -16 26 -10 0 6 -11 18 -25 27
-20 13 -32 14 -75 5 -66 -14 -70 -14 -70 4 0 23 38 39 56 24 10 -8 18 -9 22
-3 15 22 43 23 62 4 24 -24 30 -25 30 -5 0 18 37 38 56 31 17 -7 18 -38 2 -54
-9 -9 -9 -12 0 -12 15 0 33 35 27 53 -8 20 19 39 51 35 38 -4 40 -22 8 -54
-24 -25 -25 -29 -10 -39 23 -17 20 -40 -6 -53 -16 -7 -18 -11 -7 -11 9 -1 24
9 35 20 19 21 19 21 -1 37 -20 16 -20 16 2 38 13 13 23 32 23 44 0 24 22 26
41 4 11 -14 11 -21 -3 -45 -10 -16 -13 -29 -9 -29 12 0 27 21 36 50 15 51 50
72 84 51z m-1536 -51 c16 0 16 -2 -4 -29 -12 -17 -36 -35 -53 -41 -17 -7 -57
-22 -88 -35 l-58 -23 4 31 c3 18 5 35 5 38 1 4 15 12 31 19 17 7 28 15 26 18
-7 7 35 39 59 44 11 2 29 -2 40 -9 11 -7 28 -13 38 -13z m1045 -1 c-21 -14
-26 -10 -21 11 4 16 8 18 20 9 11 -10 11 -14 1 -20z m-1381 -17 c49 -8 70 -8
80 0 19 16 21 9 10 -41 -5 -24 -12 -39 -16 -33 -10 16 -144 38 -149 23 -2 -6
-8 -11 -13 -11 -10 0 -4 58 8 90 5 13 7 13 10 -1 3 -11 24 -19 70 -27z m586
19 c6 -6 20 -11 31 -11 10 0 33 -11 50 -23 18 -14 51 -26 78 -29 26 -3 60 -14
75 -24 l28 -18 -25 -7 c-14 -4 -39 -7 -55 -8 -17 -1 -89 -21 -160 -46 -101
-35 -150 -47 -220 -52 -58 -3 -104 -13 -130 -25 -22 -11 -59 -26 -83 -33 l-43
-13 3 71 3 72 55 27 c30 15 65 29 78 31 21 4 22 3 6 -14 -9 -10 -20 -16 -25
-14 -4 3 -10 1 -14 -5 -3 -5 -14 -10 -25 -10 -10 0 -20 -7 -23 -15 -5 -11 2
-10 28 5 18 10 36 16 39 13 9 -9 56 38 50 49 -3 5 0 7 8 6 7 -2 12 2 11 9 -3
13 52 63 70 63 6 0 -3 -15 -21 -33 -18 -18 -32 -36 -32 -41 0 -4 23 16 51 45
l50 52 66 -6 c35 -2 70 -10 76 -16z m1447 -73 c6 -46 10 -121 8 -168 l-3 -85
-33 -3 c-20 -2 -42 4 -61 17 -36 26 -131 29 -186 5 -20 -8 -34 -11 -31 -6 6
10 -38 97 -54 107 -4 3 -13 -2 -20 -10 -6 -7 -18 -11 -26 -8 -19 7 -62 -22
-76 -52 -9 -19 -16 -23 -34 -19 -22 6 -108 -20 -128 -38 -6 -4 -33 5 -61 21
-71 40 -192 76 -208 63 -20 -17 -97 -23 -97 -8 0 26 -22 36 -49 21 -14 -7 -34
-16 -45 -19 -13 -5 -17 -12 -12 -29 5 -21 -1 -25 -67 -47 -40 -13 -101 -27
-137 -31 -68 -8 -243 -64 -248 -80 -5 -12 -89 -12 -97 0 -3 6 -48 7 -109 4
l-104 -6 -9 54 c-9 49 -8 56 11 73 l21 19 -25 -7 c-21 -6 -22 -5 -7 4 9 6 21
8 27 5 5 -3 26 5 47 18 21 13 49 27 63 31 l25 7 -25 -15 c-28 -17 -9 -22 22
-5 11 6 46 12 78 14 33 2 67 8 77 13 10 5 24 7 31 5 7 -3 34 6 60 20 48 25
191 77 212 77 6 0 8 -5 5 -10 -4 -7 2 -9 17 -6 41 9 122 18 176 21 29 1 56 6
60 10 4 5 1 5 -5 1 -7 -4 -13 -2 -13 4 0 7 8 9 19 5 11 -3 22 -1 26 5 3 5 32
9 63 8 l57 -1 -60 -7 c-63 -7 -54 -11 32 -14 28 -1 50 2 47 5 -7 12 20 17 40
7 13 -7 16 -7 12 1 -4 6 -2 11 3 11 6 0 11 -5 11 -10 0 -10 41 -7 60 5 6 3 7
0 4 -10 -5 -13 3 -15 60 -11 36 2 68 0 72 -5 7 -13 48 -11 61 2 8 8 17 8 33
-1 13 -7 38 -10 56 -7 23 4 34 1 38 -9 6 -16 67 -19 82 -4 7 7 19 6 38 -4 27
-14 61 -11 72 5 3 5 22 6 42 3 28 -4 43 -1 63 15 32 25 45 67 27 89 -9 10 -10
16 -2 19 6 2 20 10 30 17 10 8 22 12 25 10 4 -2 12 -41 19 -86z m-670 42 c0
-5 -4 -10 -10 -10 -5 0 -10 5 -10 10 0 6 5 10 10 10 6 0 10 -4 10 -10z m-10
-40 c-6 -11 -15 -18 -20 -15 -13 8 0 35 16 35 12 0 12 -4 4 -20z m80 0 c0 -25
-39 -43 -58 -27 -18 14 -10 30 19 38 37 11 39 10 39 -11z m850 -47 c0 -34 -3
-44 -11 -36 -8 8 -19 6 -40 -6 -16 -9 -29 -19 -29 -22 0 -11 58 -31 69 -24 7
4 11 -6 11 -25 0 -29 -1 -30 -16 -15 -44 44 -144 72 -144 40 0 -8 -4 -15 -10
-15 -5 0 -10 24 -9 53 0 28 3 46 6 40 8 -21 61 -14 106 13 23 15 44 31 45 35
10 25 22 3 22 -38z m-2344 -18 c-30 -28 -33 -47 -10 -69 22 -22 96 -24 122 -4
17 15 15 48 -5 70 -9 10 -13 21 -9 26 14 13 46 -39 46 -75 0 -43 -45 -93 -85
-93 -67 0 -107 50 -103 127 3 42 4 43 37 43 l34 0 -27 -25z m1754 -125 c11
-23 18 -45 15 -51 -11 -17 -25 1 -25 31 0 16 -5 32 -10 35 -7 4 -9 -2 -6 -17
18 -88 18 -93 -14 -105 -27 -10 -30 -9 -30 8 0 10 -5 19 -10 19 -7 0 -7 6 0
20 6 11 17 20 24 20 18 0 30 30 17 43 -6 6 -5 14 2 23 16 18 14 19 37 -26z
m-687 -3 c-3 -5 -10 -4 -15 1 -6 6 -7 16 -3 22 6 9 9 9 16 -1 4 -7 5 -17 2
-22z m605 4 c-7 -11 -15 -18 -19 -15 -4 2 -10 0 -14 -6 -3 -5 1 -10 9 -10 9 0
16 -7 16 -15 0 -8 -7 -15 -16 -15 -8 0 -12 -4 -9 -10 3 -5 2 -18 -4 -27 -7
-13 -9 -3 -8 40 2 57 14 76 45 77 10 0 10 -4 0 -19z m-425 -51 c8 -22 12 -40
8 -40 -3 0 -12 14 -18 30 -9 23 -18 30 -38 30 -15 0 -24 4 -20 10 3 6 16 10
29 10 17 0 27 -10 39 -40z m130 -5 c20 -10 37 -22 37 -27 0 -5 -27 6 -61 22
-44 23 -64 28 -73 21 -14 -12 -26 -5 -26 15 0 15 57 0 123 -31z m214 7 c6 -4
15 -21 19 -37 10 -42 33 -66 58 -59 l21 5 -2 -291 c-2 -226 0 -290 10 -290 8
0 7 -4 -3 -10 -25 -16 -97 -12 -104 6 -12 30 -6 73 15 108 26 44 22 78 -8 82
-24 4 -32 -11 -10 -19 6 -3 2 -6 -11 -6 -13 -1 -21 3 -17 8 3 5 0 13 -6 17 -7
4 1 12 21 20 31 13 32 15 26 61 -8 70 -6 137 5 148 13 13 11 41 -4 57 -8 7
-19 30 -26 51 -11 33 -55 77 -78 77 -9 0 -37 40 -31 45 2 2 19 10 38 18 39 17
69 20 87 9z m437 -39 c64 -55 65 -59 20 -187 -54 -156 -165 -313 -296 -418
l-38 -30 0 306 c0 300 0 306 20 306 22 0 63 -57 53 -73 -3 -5 0 -13 7 -17 7
-4 30 -67 51 -140 21 -73 40 -134 43 -138 3 -3 18 0 32 7 19 8 24 16 19 29 -4
9 -28 85 -52 167 -42 141 -69 196 -97 195 -6 -1 0 -10 14 -21 21 -18 59 -111
60 -146 0 -44 -57 25 -67 80 -2 10 -13 31 -25 47 -17 23 -19 33 -10 42 7 7 12
9 12 5 0 -3 19 2 43 13 24 11 66 19 99 19 53 1 60 -2 112 -46z m-976 -43 c9 0
34 5 55 11 22 6 41 8 44 6 2 -3 -21 -13 -52 -22 -67 -19 -86 -10 -84 39 l1 31
9 -32 c6 -21 16 -33 27 -33z m-58 35 c0 -8 5 -26 12 -40 14 -32 38 -32 131 0
44 16 106 28 161 32 82 6 89 5 83 -11 -4 -10 -7 -27 -7 -38 0 -18 -2 -19 -17
-7 -10 7 -7 1 6 -14 13 -14 32 -29 43 -33 40 -12 13 -21 -84 -28 l-103 -6 -35
-40 c-34 -38 -38 -39 -125 -50 -144 -16 -135 -20 -135 51 l0 61 30 -4 c18 -3
35 1 41 9 6 7 17 13 25 13 7 0 16 5 20 11 5 9 -1 10 -21 5 -23 -6 -26 -4 -21
9 3 9 -1 32 -9 52 -18 42 -18 43 -5 43 6 0 10 -7 10 -15z m1100 -5 c0 -23 -8
-25 -32 -6 -25 18 -22 26 7 26 18 0 25 -5 25 -20z m-1130 0 c0 -5 -2 -10 -4
-10 -3 0 -8 5 -11 10 -3 6 -1 10 4 10 6 0 11 -4 11 -10z m-80 -20 c-8 -5 -19
-10 -25 -10 -5 0 -3 5 5 10 8 5 20 10 25 10 6 0 3 -5 -5 -10z m94 -61 c-17
-19 -54 -32 -54 -19 0 5 10 10 23 12 14 2 23 11 25 27 3 18 6 21 12 10 6 -8 3
-20 -6 -30z m559 23 c21 -23 40 -74 30 -83 -11 -10 -123 11 -123 23 0 6 11 19
25 30 14 11 25 26 25 34 0 19 24 18 43 -4z m-1335 -72 c0 -9 -3 -7 -8 5 -5 11
-8 29 -8 40 0 16 2 15 8 -5 4 -14 8 -32 8 -40z m512 38 c0 -34 -11 -68 -21
-68 -5 0 -9 20 -9 45 0 33 4 45 15 45 9 0 15 -9 15 -22z m-335 2 c-3 -5 -15
-10 -26 -10 -10 0 -19 -4 -19 -10 0 -15 23 -12 50 7 13 9 25 12 27 7 2 -6 20
-9 41 -7 26 2 5 -9 -73 -38 -60 -22 -114 -41 -119 -42 -10 -2 -38 72 -30 84 3
5 17 8 32 8 21 -1 22 -2 7 -6 -11 -3 -24 -10 -30 -15 -11 -12 9 -8 90 16 28 8
51 15 53 15 2 1 0 -3 -3 -9z m107 -80 c-2 -16 -5 -30 -7 -30 -2 0 -5 14 -7 30
-3 19 0 30 7 30 7 0 10 -11 7 -30z m375 -7 c-3 -10 -5 -4 -5 12 0 17 2 24 5
18 2 -7 2 -21 0 -30z m501 -35 c-1 -48 -2 -53 -5 -21 -2 23 -11 47 -19 53 -12
11 -14 5 -14 -39 0 -46 -2 -51 -22 -51 -12 0 -32 -10 -45 -22 -28 -26 -92 -36
-235 -37 l-98 -1 0 35 c0 21 5 35 13 35 6 1 61 7 122 14 106 14 111 15 140 49
33 39 47 44 118 46 l47 1 -2 -62z m-967 -6 c-20 -7 -12 -35 8 -29 16 4 17 1 7
-24 -9 -25 -16 -29 -48 -29 -21 0 -41 -1 -45 -2 -8 -3 -38 46 -47 77 -5 17 3
23 62 40 l67 21 3 -25 c2 -14 -1 -27 -7 -29z m405 27 c-3 -17 -6 -39 -6 -49 0
-14 -10 -19 -42 -21 l-43 -4 0 45 c1 47 12 56 74 59 21 1 23 -2 17 -30z m594
11 c-6 -11 -13 -20 -15 -20 -3 0 -5 9 -5 20 0 11 7 20 15 20 13 0 14 -4 5 -20z
m100 5 c0 -8 -2 -15 -4 -15 -2 0 -6 7 -10 15 -3 8 -1 15 4 15 6 0 10 -7 10
-15z m70 -27 c11 -23 20 -52 20 -64 0 -20 -2 -21 -25 -11 -19 10 -25 21 -27
57 -2 29 -7 44 -15 43 -7 -2 -13 2 -13 7 0 6 9 10 20 10 13 0 26 -14 40 -42z
m-130 22 c0 -5 -4 -10 -10 -10 -5 0 -10 5 -10 10 0 6 5 10 10 10 6 0 10 -4 10
-10z m30 0 c0 -5 -4 -10 -10 -10 -5 0 -10 5 -10 10 0 6 5 10 10 10 6 0 10 -4
10 -10z m425 -47 c11 -37 11 -42 -5 -46 -14 -4 -21 5 -29 39 -14 55 -14 56 5
52 10 -2 22 -21 29 -45z m-471 11 c9 -22 -3 -32 -14 -14 -12 19 -12 30 -1 30
5 0 12 -7 15 -16z m66 6 c0 -5 -4 -10 -10 -10 -5 0 -10 5 -10 10 0 6 5 10 10
10 6 0 10 -4 10 -10z m-965 -37 c0 -16 -4 -31 -10 -35 -21 -16 -35 -7 -35 21
0 27 5 32 40 40 3 0 6 -11 5 -26z m885 -16 c0 -20 -25 1 -28 24 -2 23 -2 23
13 5 8 -11 15 -24 15 -29z m90 7 c0 -8 -5 -12 -10 -9 -6 4 -8 11 -5 16 9 14
15 11 15 -7z m17 -6 c-3 -8 -6 -5 -6 6 -1 11 2 17 5 13 3 -3 4 -12 1 -19z
m-709 -40 l-3 -33 -162 -3 c-141 -3 -163 -1 -163 12 0 18 19 22 190 40 69 8
129 14 133 15 5 0 7 -14 5 -31z m52 -3 c0 -16 -6 -25 -15 -25 -9 0 -15 9 -15
25 0 16 6 25 15 25 9 0 15 -9 15 -25z m50 0 c0 -14 -6 -25 -13 -25 -7 0 -14
11 -15 25 -1 16 3 25 13 25 9 0 15 -10 15 -25z m430 -15 c4 0 11 10 16 23 6
16 9 6 11 -40 l4 -63 34 0 c19 0 35 -4 35 -10 0 -13 -106 -13 -171 1 -31 7
-63 22 -83 40 l-31 28 31 1 c17 0 47 11 67 24 46 32 71 36 75 14 2 -10 7 -18
12 -18z m94 18 c3 -13 6 -38 6 -55 0 -29 -3 -33 -25 -33 -24 0 -25 3 -25 55 0
47 3 55 19 55 11 0 21 -9 25 -22z m66 -33 c0 -52 -1 -55 -25 -55 -24 0 -25 3
-25 55 0 52 1 55 25 55 24 0 25 -3 25 -55z m90 -21 c0 -38 -3 -43 -31 -53 -40
-14 -86 -14 -94 -1 -4 6 7 10 24 10 29 0 31 2 31 40 0 23 7 48 17 60 16 18 18
18 35 3 12 -11 18 -30 18 -59z m331 49 c12 -31 9 -55 -8 -60 -13 -5 -38 62
-28 77 11 18 25 11 36 -17z m-1501 -29 c0 -12 -9 -14 -42 -12 -59 4 -63 28 -4
28 35 0 46 -4 46 -16z m930 -129 c0 -8 -4 -15 -10 -15 -5 0 -7 7 -4 15 4 8 8
15 10 15 2 0 4 -7 4 -15z m40 5 c0 -5 -4 -10 -10 -10 -5 0 -10 5 -10 10 0 6 5
10 10 10 6 0 10 -4 10 -10z m148 -2 c-3 -8 -28 -14 -66 -16 -51 -2 -62 0 -62
13 0 12 13 15 66 15 48 0 65 -3 62 -12z m-233 -8 c4 -6 -6 -7 -27 -3 -44 8
-48 13 -10 13 17 0 34 -4 37 -10z m667 -77 c7 -10 22 -23 33 -29 28 -15 32
-60 6 -73 -24 -14 -48 -5 -56 20 -4 10 -13 19 -20 19 -8 0 -19 9 -25 21 -9 16
-8 25 6 40 21 24 39 24 56 2z m-1557 -29 c23 -30 27 -43 22 -80 -2 -24 -2 -44
2 -44 8 0 36 43 33 53 -3 11 13 8 26 -5 14 -14 16 -32 3 -24 -5 4 -27 -14 -49
-39 -22 -25 -43 -45 -47 -45 -4 0 -4 28 0 63 l7 62 -26 -25 c-15 -13 -24 -30
-22 -37 9 -22 -7 -14 -46 24 -39 38 -49 59 -24 50 15 -6 76 51 76 71 0 22 17
13 45 -24z m299 -28 c110 -19 143 -29 160 -46 20 -21 20 -22 1 -17 -11 3 -82
16 -157 28 -145 24 -165 30 -154 48 4 6 8 11 9 11 1 0 64 -11 141 -24z m1191
-14 c5 -12 15 -22 22 -22 14 0 43 -27 43 -41 0 -5 -9 -18 -20 -29 -16 -16 -25
-18 -40 -10 -11 6 -20 20 -20 30 0 13 -7 20 -19 20 -28 0 -37 37 -15 61 21 23
35 21 49 -9z m-905 -82 c459 -78 429 -71 355 -86 -223 -48 -471 -10 -671 101
-64 36 -74 45 -52 45 7 0 172 -27 368 -60z m15 33 c8 -22 5 -23 -44 -16 l-44
6 23 17 c26 19 56 16 65 -7z m645 8 c0 -3 -10 -12 -21 -20 -18 -10 -23 -10
-30 0 -4 7 -6 16 -4 19 5 7 55 9 55 1z m174 -7 c9 -8 14 -19 11 -24 -3 -5 4
-11 15 -15 34 -11 44 -41 20 -65 -11 -11 -24 -20 -29 -20 -14 0 -41 29 -41 43
0 7 -9 18 -20 25 -24 15 -25 30 -3 54 20 22 27 22 47 2z m-1256 -43 c26 -22
28 -34 8 -50 -12 -10 -15 -7 -18 16 -2 20 -9 29 -25 31 -24 4 -63 -33 -63 -59
0 -24 26 -42 51 -36 13 3 19 1 16 -6 -7 -23 -46 -19 -72 7 -30 31 -32 55 -4
90 25 32 73 35 107 7z m787 7 c126 2 228 1 225 -1 -3 -3 -34 -17 -69 -32 l-65
-27 -173 28 c-95 15 -173 31 -173 36 0 5 6 6 13 1 6 -4 115 -6 242 -5z m401
-63 c16 -24 35 -46 43 -47 10 -2 6 -9 -12 -21 -25 -16 -27 -16 -27 -1 0 25
-40 84 -56 84 -12 0 -12 4 -4 20 14 26 21 21 56 -35z m-1091 -10 c29 -28 30
-36 10 -74 -33 -65 -125 -49 -125 21 0 34 39 78 70 78 12 0 32 -11 45 -25z
m80 -32 c45 -22 55 -50 24 -74 -21 -15 -22 -20 -11 -44 17 -36 33 -28 48 25
10 34 10 46 1 52 -24 14 1 18 39 5 21 -8 44 -23 49 -34 9 -17 13 -18 23 -7 18
19 62 17 84 -3 41 -37 9 -123 -47 -123 -31 0 -65 33 -65 63 0 18 -5 23 -27 22
-33 0 -45 -13 -37 -38 5 -15 1 -17 -23 -11 -62 15 -72 23 -79 60 -5 25 -9 32
-15 22 -5 -7 -6 -21 -3 -30 6 -21 3 -22 -31 -6 -25 11 -34 28 -15 28 17 0 49
83 38 98 -15 17 4 16 47 -5z m860 -18 c34 -33 32 -67 -6 -99 -17 -14 -34 -26
-39 -26 -5 0 -16 -3 -26 -7 -13 -5 -16 -3 -11 10 6 17 -23 97 -35 97 -5 0 -8
-5 -8 -11 0 -6 -8 -8 -17 -5 -23 7 -48 -8 -39 -23 10 -15 33 -14 39 2 5 15 13
9 22 -21 6 -21 4 -22 -19 -16 -22 5 -26 3 -26 -15 0 -29 33 -28 53 2 l16 22 0
-26 c1 -22 -6 -27 -49 -41 -27 -9 -52 -12 -55 -8 -3 5 -1 10 5 12 10 3 -9 81
-24 95 -5 5 -6 2 -2 -5 6 -10 1 -11 -20 -6 -23 6 -26 4 -21 -10 4 -10 7 -28 7
-41 0 -13 7 -30 15 -38 13 -13 13 -16 -1 -21 -9 -3 -25 -6 -36 -6 -15 0 -18 3
-10 13 7 9 7 27 0 62 -9 42 -12 47 -23 32 -16 -22 -25 -21 -25 2 0 16 11 22
58 31 31 6 95 24 142 39 107 36 106 36 135 6z m-497 -71 c26 -18 28 -36 7 -54
-12 -10 -12 -15 2 -36 20 -31 39 -31 47 0 3 13 14 43 24 67 l19 44 32 -62 c17
-35 36 -63 41 -63 6 0 10 -4 10 -10 0 -5 -14 -10 -30 -10 -24 0 -30 4 -28 18
2 12 -4 17 -22 17 -20 0 -25 -5 -23 -22 2 -20 -2 -23 -36 -23 -35 0 -42 5 -63
38 -17 28 -24 33 -26 19 -2 -10 2 -24 8 -32 11 -13 7 -15 -23 -15 l-36 0 15
28 c16 31 19 92 4 92 -5 0 -10 5 -10 10 0 16 63 12 88 -6z"/>
        <path d="M1490 2610 c0 -62 2 -71 17 -68 10 2 21 18 27 36 11 40 -3 96 -27
100 -15 3 -17 -6 -17 -68z"/>
        <path d="M1280 2652 c0 -14 23 -127 26 -131 2 -2 10 2 19 9 17 14 20 81 5 111
-10 19 -50 27 -50 11z"/>
        <path d="M2178 2411 c-35 -28 -54 -76 -38 -96 20 -24 46 -17 80 21 55 63 22
125 -42 75z"/>
        <path d="M1646 2029 c-54 -43 -24 -142 44 -142 68 0 98 99 44 142 -15 12 -34
21 -44 21 -10 0 -29 -9 -44 -21z"/>
        <path d="M1844 2165 c-5 -11 -10 -13 -19 -5 -10 8 -13 2 -11 -31 1 -36 4 -43
26 -47 62 -11 65 -10 62 32 -3 33 -1 38 13 32 9 -3 19 -6 22 -6 3 0 1 -6 -5
-12 -13 -17 -3 -68 13 -68 7 0 25 -3 41 -6 26 -5 30 -2 42 28 9 24 9 34 1 37
-6 2 -20 12 -31 23 -16 16 -22 17 -28 7 -7 -10 -14 -9 -35 5 -21 14 -29 15
-41 6 -11 -10 -15 -9 -20 4 -8 20 -23 21 -30 1z m21 -45 c0 -7 -6 -15 -12 -17
-8 -3 -13 4 -13 17 0 13 5 20 13 18 6 -3 12 -11 12 -18z"/>
        <path d="M1830 2051 c0 -18 31 -41 54 -41 13 0 52 -3 87 -6 64 -7 64 -7 46 13
-13 15 -40 24 -93 32 -91 13 -94 13 -94 2z"/>
        <path d="M2040 2011 c5 -11 10 -31 10 -44 0 -22 5 -25 43 -29 53 -6 62 2 48
45 -9 27 -19 36 -43 41 -57 11 -70 8 -58 -13z"/>
        <path d="M2154 1988 c3 -17 6 -37 6 -44 0 -9 11 -14 30 -14 33 0 37 13 19 54
-6 13 -23 26 -36 29 -23 4 -25 2 -19 -25z"/>
        <path d="M1860 1985 c0 -12 16 -15 93 -14 104 0 93 12 -20 23 -61 5 -73 4 -73
-9z"/>
        <path d="M2373 2278 c-6 -7 -18 -27 -27 -45 l-16 -32 30 11 c19 6 32 19 36 35
8 29 -8 50 -23 31z"/>
        <path d="M590 2255 c-6 -8 -9 -23 -5 -35 8 -27 66 -70 94 -70 48 0 35 66 -21
100 -39 24 -52 25 -68 5z"/>
        <path d="M2204 1657 c1 -16 -4 -22 -18 -20 -12 1 -15 -2 -8 -9 15 -15 42 -2
42 21 0 11 -4 22 -8 25 -5 3 -8 -5 -8 -17z"/>
        <path d="M569 1653 c-13 -17 -13 -17 6 -3 11 8 22 16 24 17 2 2 0 3 -6 3 -6 0
-17 -8 -24 -17z"/>
        <path d="M2094 1105 c0 -126 2 -177 3 -112 2 65 2 168 0 230 -1 62 -3 9 -3
-118z"/>
        <path d="M2088 830 c-7 -43 -4 -59 8 -48 3 3 4 26 2 49 l-3 44 -7 -45z"/>
        <path d="M1390 1221 c-25 -7 -40 -45 -23 -62 11 -10 104 9 122 26 24 23 6 45
-36 44 -21 -1 -49 -4 -63 -8z m40 -26 c0 -9 -9 -15 -25 -15 -26 0 -34 15 -12
23 23 10 37 7 37 -8z m40 11 c0 -2 -7 -7 -16 -10 -8 -3 -12 -2 -9 4 6 10 25
14 25 6z"/>
        <path d="M653 1085 c5 -14 87 -19 87 -6 0 6 -6 11 -12 12 -64 4 -78 3 -75 -6z"/>
        <path d="M2265 800 c-3 -6 1 -13 10 -16 19 -8 30 0 20 15 -8 14 -22 14 -30 1z"/>
        <path d="M2312 748 c7 -19 38 -22 38 -4 0 10 -9 16 -21 16 -12 0 -19 -5 -17
-12z"/>
        <path d="M697 742 c-31 -32 -35 -41 -24 -50 11 -9 20 -4 47 29 44 55 26 71
-23 21z"/>
        <path d="M2206 743 c-11 -11 -6 -23 9 -23 8 0 15 4 15 9 0 13 -16 22 -24 14z"/>
        <path d="M2250 675 c0 -10 7 -15 18 -13 21 4 19 22 -2 26 -10 2 -16 -3 -16
-13z"/>
        <path d="M2137 683 c-4 -3 -7 -10 -7 -14 0 -11 29 -19 35 -10 6 11 -20 33 -28
24z"/>
        <path d="M2170 621 c0 -5 6 -14 14 -20 16 -13 32 2 21 19 -8 12 -35 13 -35 1z"/>
        <path d="M944 566 c-21 -34 -15 -70 13 -74 31 -4 63 58 43 83 -18 22 -37 19
-56 -9z"/>
        <path d="M1077 516 c-3 -8 -3 -17 0 -20 9 -9 34 15 27 25 -8 13 -21 11 -27 -5z"/>
        <path d="M1190 469 c0 -24 23 -21 28 4 2 10 -3 17 -12 17 -10 0 -16 -9 -16
-21z"/>
        <path d="M1280 450 c-18 -33 -9 -74 17 -78 26 -4 46 27 41 66 -4 35 -41 43
-58 12z"/>
        <path d="M1870 526 c0 -2 9 -25 20 -50 14 -33 23 -44 34 -40 42 16 18 94 -29
94 -14 0 -25 -2 -25 -4z"/>
        <path d="M1420 433 c0 -21 2 -24 15 -13 8 7 15 16 15 20 0 4 -7 10 -15 14 -11
4 -15 -2 -15 -21z"/>
        <path d="M1550 415 c0 -8 4 -15 10 -15 5 0 7 7 4 15 -4 8 -8 15 -10 15 -2 0
-4 -7 -4 -15z"/>
    </g>
</svg>
